<svg xmlns="http://www.w3.org/2000/svg" fill="none" viewBox="0 0 9 225" height="225" width="9">
<path fill="#1B5D31" d="M6.9299 200.421C6.76327 199.046 5.41343 197.91 4.85694 196.7C5.47212 195.408 6.81567 194.098 6.94248 192.614C7.15208 190.17 5.99822 189.274 4.85694 187.427C5.44487 186.143 6.81881 184.809 6.94248 183.342C7.14998 180.889 5.99088 179.985 4.83807 178.136C5.9322 176.245 7.16466 175.133 6.93724 172.709C6.79576 171.208 5.5088 170.109 4.84122 168.866C5.92172 166.885 7.20448 165.857 6.93933 163.323C6.79995 161.997 5.44487 160.717 4.85903 159.571C5.46897 158.219 6.80833 156.967 6.94353 155.412C7.14684 153.056 5.96259 152.083 4.85903 150.299L6.53899 147.513C7.79346 144.95 6.23717 142.96 4.85903 141.025C5.46059 139.653 6.80729 138.444 6.94248 136.866C7.14894 134.468 6.01813 133.548 4.85903 131.753C5.91124 129.76 7.28623 128.545 6.932 126.013C6.76746 124.836 5.40924 123.501 4.85903 122.481C5.46897 121.032 6.80833 119.862 6.94248 118.209C7.13846 115.801 5.92591 114.95 4.83807 113.116C5.44487 111.877 6.82301 110.478 6.94248 109.05C7.14789 106.596 5.99298 105.695 4.83807 103.844C5.4281 102.6 6.82405 101.19 6.94248 99.7774C7.14894 97.3214 6.02232 96.41 4.83807 94.5714C5.47736 93.2518 6.81881 91.9118 6.94248 90.3921C7.13531 88.0163 5.96992 87.0891 4.85903 85.2799C5.48574 83.9546 6.81043 82.661 6.94353 81.1209C7.15103 78.7113 5.98669 77.8293 4.85903 76.0076C5.9301 74.0062 7.24221 72.9399 6.9299 70.3832C6.76222 69.0161 5.39771 67.8706 4.86008 66.6607C5.98774 64.7475 7.23278 63.602 6.9299 61.1109C6.76537 59.7608 5.42077 58.5701 4.86008 57.3885C5.49203 56.0881 6.81253 54.825 6.94248 53.3041C7.15208 50.856 5.98879 49.9729 4.85694 48.1173C5.4543 46.8305 6.81672 45.5121 6.94248 44.0319C7.14998 41.5793 5.99088 40.6746 4.83807 38.8258C5.93324 36.9499 7.16361 35.8135 6.93724 33.3993C6.79576 31.8977 5.5088 30.7985 4.84122 29.5558C5.93534 27.5804 7.20343 26.5401 6.93933 24.0128C6.79681 22.6514 5.44068 21.4403 4.84122 20.2836C5.41343 18.9968 6.78842 17.6625 6.93933 16.2117C7.18876 13.8077 5.98774 12.8228 4.87475 11.0124C4.86008 11.0124 4.84646 11.0124 4.83178 11.0124C4.61694 11.0124 4.40315 11.0068 4.1904 11C3.25453 12.6475 1.80617 14.096 2.02416 16.1981C2.19184 17.8117 3.45994 18.9515 4.17992 20.2802C3.28701 21.8904 1.85753 23.3265 2.01473 25.3686C2.11848 26.7154 3.28073 28.2136 4.00595 29.3014C4.06569 29.3907 4.21975 29.3636 4.21765 29.4416C3.3457 31.1977 1.79674 32.558 2.02416 34.7427C2.19499 36.3845 3.42954 37.4938 4.18306 38.8258C3.39286 40.3105 2.00635 41.7636 2.00635 43.5739C2.00635 45.46 3.31217 46.6259 4.18306 48.097C3.28073 49.8304 1.8439 51.1116 2.02626 53.2849C2.16984 54.9958 3.49871 56.0553 4.21765 57.4812C4.21975 57.5603 4.06254 57.5253 4.00595 57.6191C3.22937 58.9071 2.04093 60.5603 2.00739 62.1151C1.96652 63.9887 3.31426 65.2258 4.20193 66.6585C3.31531 68.3987 1.76635 69.7556 2.03988 71.9267C2.24948 73.5867 3.43478 74.6575 4.19669 76.0065C3.44002 77.3419 2.17298 78.7249 2.02626 80.3373C1.84286 82.3535 3.17488 83.7126 4.20403 85.2019C3.3761 86.8867 1.88373 88.2029 2.01578 90.2733C2.11115 91.7648 3.2168 93.141 4.007 94.3203C4.06778 94.4108 4.22079 94.3837 4.21765 94.4606C3.44841 96.021 2.04931 97.3203 2.00739 99.2041C1.96442 101.128 3.2975 102.348 4.18411 103.844C3.2409 105.561 1.79884 106.946 2.04407 109.127C2.21909 110.679 3.44422 111.855 4.18411 113.116C3.25662 114.776 1.83447 116.204 2.01578 118.316C2.15411 119.925 3.52911 121.158 4.2187 122.5C4.22079 122.579 4.06359 122.544 4.007 122.638C3.29854 123.813 2.0818 125.52 2.01054 126.907C1.90574 128.939 3.24929 130.14 4.19774 131.68C2.94851 133.863 1.18261 135.551 2.44651 138.317C2.66345 138.792 4.22394 140.842 4.19878 141.025C3.23671 142.703 1.80303 144.077 2.02626 146.235C2.19394 147.852 3.51653 148.946 4.19878 150.297C3.28177 151.925 1.84286 153.339 2.01683 155.404C2.14573 156.941 3.37086 158.317 4.20612 159.492C3.51758 160.908 2.11324 162.335 2.01263 163.995C1.88792 166.036 3.25453 167.285 4.18621 168.861C3.24719 170.572 1.76845 171.967 2.04303 174.147C2.2432 175.743 3.44946 176.824 4.18621 178.134C3.243 179.86 1.79884 181.229 2.04512 183.417C2.22433 185.012 3.45889 186.098 4.18516 187.406C3.29959 189.058 1.87954 190.419 2.01683 192.493C2.1342 194.253 3.46832 195.321 4.20298 196.775C2.82903 198.854 1.1323 200.815 2.52092 203.482C2.72843 203.88 4.23232 205.867 4.20298 206.048C2.67602 208.405 1.05894 210.189 2.70432 213.122C2.85943 213.399 3.6926 214.453 4.04263 215C4.38638 214.945 4.73222 214.903 5.08226 214.873C5.74146 213.68 6.8251 212.542 6.94457 211.158C7.14998 208.772 6.01289 207.835 4.85484 206.048C5.91543 204.033 7.24221 202.981 6.93095 200.42L6.9299 200.421ZM4.47756 12.5344C4.73432 12.4666 5.73622 14.2249 5.83787 14.571C6.33673 16.2648 5.36522 17.4861 4.47651 18.7514C2.54293 16.6369 2.72842 14.701 4.4786 12.5344H4.47756ZM3.25138 23.8783C3.51234 23.1094 4.16315 22.5745 4.42516 21.8078C4.57188 21.7705 4.59703 21.8316 4.68821 21.9175C4.8496 22.0702 5.48679 23.0754 5.59788 23.3106C6.5107 25.2329 5.54234 26.5401 4.47546 28.0248C3.49347 26.764 2.65716 25.6276 3.25033 23.8783H3.25138ZM3.06064 33.9613C3.16335 32.8565 4.01224 32.0458 4.42516 31.0801C4.77938 31.0518 4.82445 31.4928 4.98584 31.7167C6.60502 33.9624 6.0873 35.2357 4.47441 37.2959C3.69155 36.3178 2.93069 35.3442 3.0596 33.9613H3.06064ZM3.19584 44.5599C2.7169 42.7903 3.61399 41.8054 4.41572 40.4236L4.63161 40.3524C4.87685 40.9539 5.40924 41.4153 5.66915 42.0044C6.49917 43.8894 5.48365 45.0756 4.58026 46.5716C4.26062 46.5727 3.29959 44.9388 3.19689 44.5588L3.19584 44.5599ZM3.42221 54.3795C2.47271 52.4255 3.52701 51.297 4.41468 49.6947L4.63057 49.6246C4.88942 50.3065 5.51614 50.8244 5.77499 51.5006C6.43524 53.2261 5.38618 54.4881 4.57921 55.8438C4.35179 55.8438 3.55111 54.6441 3.42221 54.3784V54.3795ZM3.05645 62.0031C3.10885 60.7921 3.94936 59.987 4.41677 58.9659L4.63161 58.8969C4.86637 59.5821 5.46583 60.039 5.73412 60.705C6.48659 62.5719 5.40085 63.792 4.47651 65.2258C3.80368 64.2126 2.99881 63.3408 3.05645 62.0031ZM3.05331 71.3896C3.07008 70.1966 3.86971 69.2004 4.47651 68.2811C6.66056 70.1774 6.17953 72.4367 4.47546 74.4981C3.82779 73.5245 3.03444 72.6866 3.05331 71.3896ZM3.28492 81.8921C2.61734 80.1304 3.55845 78.8899 4.47756 77.5534C4.63581 77.5104 5.51404 78.8108 5.61884 79.0347C6.5369 80.9875 5.53081 82.263 4.47651 83.7703C4.37066 83.7703 3.37819 82.1364 3.28492 81.8921ZM3.05331 89.9341C3.07008 88.7434 3.92106 87.7823 4.47756 86.8256C4.62113 86.7872 5.50356 88.0831 5.61674 88.3092C6.54319 90.1546 5.53186 91.6269 4.47651 93.0426C3.81521 92.0837 3.03549 91.2255 3.05436 89.9341H3.05331ZM3.60351 101.109C2.43184 98.987 3.33522 97.8574 4.47756 96.0979C4.70497 96.0391 5.73727 97.7997 5.83787 98.1344C6.37865 99.9335 5.30444 100.852 4.63161 102.316C4.46184 102.441 3.7146 101.31 3.60456 101.109H3.60351ZM3.39391 110.042C2.49262 108.115 3.53749 106.887 4.47651 105.369C4.63895 105.369 5.48469 106.646 5.59683 106.874C6.57253 108.844 5.48155 109.953 4.63057 111.589C4.48384 111.627 4.45869 111.566 4.36751 111.48C4.19983 111.321 3.505 110.281 3.39391 110.044V110.042ZM3.39391 119.315C2.47061 117.396 3.56264 116.169 4.47651 114.641C4.66934 114.641 5.5895 116.112 5.69954 116.375C6.49393 118.269 5.42705 119.32 4.63057 120.861C4.4807 120.899 4.45764 120.836 4.36647 120.749C4.13276 120.526 3.53959 119.618 3.39286 119.315H3.39391ZM3.19479 128.123C2.6603 126.331 3.67897 125.307 4.47651 123.914C4.62323 123.88 4.65257 124.006 4.72069 124.104C5.69115 125.493 6.41952 126.58 5.65133 128.35C5.38094 128.973 4.84855 129.474 4.63161 130.134C4.3497 130.342 3.29226 128.448 3.19584 128.125L3.19479 128.123ZM4.48594 133.305C4.65467 133.266 5.50042 134.545 5.61674 134.782C6.56729 136.738 5.46164 137.971 4.47651 139.517C2.61734 137.449 2.65506 135.374 4.48699 133.305H4.48594ZM4.47756 142.572C4.73432 142.504 5.73622 144.263 5.83787 144.609C6.35559 146.366 5.32225 147.452 4.47651 148.789C2.56179 146.668 2.72633 144.726 4.4786 142.572H4.47756ZM4.47756 151.845C6.61131 153.722 6.21726 156.035 4.47546 158.062C2.55236 155.933 2.72214 154.013 4.47756 151.845ZM3.05331 164.342C3.03235 163.012 3.86971 162.185 4.42516 161.118C4.57188 161.081 4.59703 161.142 4.68821 161.228C4.92925 161.456 5.73412 162.815 5.83683 163.154C6.3493 164.835 5.36522 166.093 4.47546 167.335C3.83198 166.384 3.07322 165.608 3.05331 164.342ZM3.05436 173.614C3.03968 172.298 3.91058 171.48 4.4262 170.39C4.57292 170.353 4.59808 170.414 4.68925 170.5C4.89047 170.69 5.46164 171.61 5.59683 171.895C6.5107 173.822 5.61989 175.145 4.47756 176.607C3.82988 175.694 3.06903 174.841 3.0554 173.614H3.05436ZM3.35618 184.261C2.51987 182.407 3.5574 181.114 4.47651 179.66C4.6379 179.658 5.48469 180.937 5.59683 181.165C6.56834 183.126 5.4826 184.251 4.63057 185.881C4.4283 185.917 4.32979 185.735 4.21555 185.596C4.00805 185.343 3.48823 184.556 3.35618 184.261ZM3.42221 193.69C2.49262 191.776 3.48404 190.559 4.41468 189.005L4.63057 188.935C4.89781 189.63 5.51509 190.111 5.7729 190.813C6.41952 192.579 5.40295 193.765 4.57921 195.154C4.35179 195.154 3.55111 193.954 3.42221 193.688V193.69ZM5.61674 209.075C6.52537 211.051 5.51614 212.257 4.47546 213.809C2.61314 211.699 2.67707 209.718 4.47651 207.592C4.66201 207.543 5.50251 208.829 5.6157 209.075H5.61674ZM4.42516 204.538C4.00909 203.673 3.22099 202.974 3.08894 201.965C2.88667 200.419 3.75652 199.505 4.41468 198.276L4.63057 198.206C4.88628 198.867 5.46898 199.359 5.73307 200.014C6.46983 201.841 5.42286 203.18 4.42411 204.537L4.42516 204.538Z"></path>
<path fill="#1B5D31" d="M3.90639 201.323C3.86133 202.54 5.68696 201.76 5.02776 200.948C4.74689 200.602 3.92945 200.718 3.90639 201.323Z"></path>
<path fill="#1B5D31" d="M5.02357 99.5739C5.38199 99.1566 4.93554 98.4974 4.39581 98.6037C3.2975 98.8174 4.269 100.455 5.02357 99.5739Z"></path>
<path fill="#1B5D31" d="M4.95231 135.952C4.29939 135.313 3.55007 136.265 4.03006 136.779C4.52157 137.306 5.55491 136.542 4.95231 135.952Z"></path>
<path fill="#1B5D31" d="M5.02671 61.6379C4.74585 61.2919 3.9284 61.4083 3.90534 62.0133C3.86028 63.23 5.68591 62.4498 5.02671 61.6379Z"></path>
<path fill="#1B5D31" d="M4.28682 33.5881C3.80683 33.7476 3.72928 34.6635 4.39581 34.7935C5.39142 34.9869 5.33693 33.2399 4.28682 33.5881Z"></path>
<path fill="#1B5D31" d="M4.95231 70.9328C4.29939 70.2939 3.55007 71.246 4.03006 71.7605C4.52157 72.2874 5.55491 71.523 4.95231 70.9328Z"></path>
<path fill="#1B5D31" d="M4.03006 211.069C4.52157 211.596 5.55491 210.832 4.95231 210.242C4.29939 209.603 3.55007 210.555 4.03006 211.069Z"></path>
<path fill="#1B5D31" d="M4.28787 172.895C3.81521 173.046 3.72194 173.973 4.39581 174.104C5.41133 174.302 5.30549 172.57 4.28787 172.895Z"></path>
<path fill="#1B5D31" d="M5.01938 43.1001C4.69764 42.6343 3.9525 42.8412 3.90325 43.4688C3.81626 44.586 5.64609 44.0081 5.01938 43.1001Z"></path>
<path fill="#1B5D31" d="M5.02357 191.677C4.20927 190.727 3.26605 192.647 4.47965 192.672C5.00575 192.682 5.35998 192.069 5.02357 191.677Z"></path>
<path fill="#1B5D31" d="M5.02357 81.0282C5.68801 80.1553 3.81626 79.4904 3.90325 80.6539C3.95041 81.2815 4.72698 81.4172 5.02357 81.0282Z"></path>
<path fill="#1B5D31" d="M5.02357 155.319C5.70478 154.425 3.73452 153.751 3.92001 155.044C3.99862 155.589 4.75423 155.674 5.02357 155.319Z"></path>
<path fill="#1B5D31" d="M4.99632 16.0364C5.54234 15.3455 4.45031 14.6399 4.03006 15.1635C3.53225 15.7843 4.47336 16.6968 4.99632 16.0364Z"></path>
<path fill="#1B5D31" d="M4.39686 182.167C3.82045 182.281 3.72089 183.187 4.28891 183.37C5.34741 183.711 5.41238 181.967 4.39686 182.167Z"></path>
<path fill="#1B5D31" d="M4.91982 126.546C4.13381 125.853 3.31846 127.629 4.47965 127.653C5.12523 127.667 5.32225 126.901 4.91982 126.546Z"></path>
<path fill="#1B5D31" d="M4.28682 163.626C3.78377 163.793 3.79949 164.731 4.39372 164.828C5.43963 165 5.32016 163.282 4.28682 163.626Z"></path>
<path fill="#1B5D31" d="M4.76995 109.081C5.35055 108.887 5.18811 107.72 4.39686 107.876C3.59827 108.033 3.87705 109.38 4.76995 109.081Z"></path>
<path fill="#1B5D31" d="M4.95231 145.224C4.35808 144.637 3.52596 145.476 4.03215 146.048C4.54882 146.633 5.52766 145.792 4.95231 145.224Z"></path>
<path fill="#1B5D31" d="M4.76995 118.354C5.37151 118.153 5.20173 116.989 4.39686 117.148C3.59932 117.307 3.876 118.651 4.76995 118.354Z"></path>
<path fill="#1B5D31" d="M5.02357 90.3005C5.68906 89.423 3.81207 88.7672 3.9022 89.9273C3.9525 90.5741 4.70917 90.7143 5.02357 90.3005Z"></path>
<path fill="#1B5D31" d="M5.01938 52.3713C4.25119 51.3807 3.24614 53.3369 4.47965 53.3618C5.00051 53.372 5.3516 52.7998 5.01938 52.3713Z"></path>
<path fill="#1B5D31" d="M4.81711 25.4557C5.45221 25.13 5.08121 24.0626 4.28891 24.317C3.5333 24.5601 4.00595 25.8718 4.81711 25.4557Z"></path>
<path fill="#1B5D31" d="M8.92876 218.22C9.33342 218.886 7.90666 219.92 7.3532 220.084C5.98345 220.491 5.21028 220.037 4.42458 218.924C3.93926 219.238 3.88364 219.615 3.2968 219.915C2.35814 220.395 1.51265 220.298 0.672729 219.644C0.19436 219.272 -0.414725 218.105 0.395998 218.046C1.02455 218.002 1.68231 219.137 3.06318 218.374C3.62499 218.064 4.32168 216.641 4.42876 216.615C4.7041 216.545 5.04897 217.498 5.25895 217.772C5.86664 218.569 6.32971 218.752 7.31287 218.596C7.74535 218.528 8.70348 217.846 8.93015 218.22H8.92876Z"></path>
<path fill="#1B5D31" d="M4.41207 225C4.41207 225 2.86711 220.08 4.3926 220.076C6.20178 220.071 4.41207 225 4.41207 225Z"></path>
<path fill="#1B5D31" d="M5.15744 214.194C5.50787 214.557 5.51899 215.811 4.70827 215.9C3.10629 216.076 3.30654 214.087 4.28553 214.004C4.50802 213.985 5.00447 214.034 5.15883 214.194H5.15744Z"></path>
<circle fill="#F58220" r="4" cy="4" cx="5"></circle>
</svg>
