<svg xmlns="http://www.w3.org/2000/svg" fill="none" viewBox="0 0 405 9" height="9" width="405">
<path fill="#1B5D31" d="M230.647 1.90453C231.912 2.05791 232.958 3.30038 234.072 3.81261C235.26 3.24636 236.467 2.00968 237.832 1.89296C240.083 1.70003 240.907 2.76211 242.607 3.81261C243.789 3.27144 245.017 2.00679 246.367 1.89296C248.625 1.70196 249.457 2.76886 251.159 3.82997C252.899 2.82288 253.923 1.68846 256.154 1.89778C257.536 2.02801 258.548 3.2126 259.692 3.82708C261.515 2.83253 262.461 1.6518 264.794 1.89585C266.015 2.02415 267.193 3.27144 268.247 3.81068C269.492 3.24925 270.644 2.01644 272.075 1.892C274.244 1.70485 275.139 2.79491 276.782 3.81068L279.346 2.26435C281.705 1.10967 283.537 2.54217 285.318 3.81068C286.581 3.25697 287.694 2.0174 289.146 1.89296C291.353 1.70293 292.2 2.74378 293.852 3.81068C295.687 2.84217 296.805 1.57656 299.135 1.90261C300.219 2.05406 301.448 3.30424 302.387 3.81068C303.72 3.24926 304.797 2.01644 306.319 1.89296C308.535 1.71257 309.319 2.82867 311.007 3.82997C312.148 3.27144 313.435 2.00293 314.75 1.89296C317.008 1.70389 317.838 2.76693 319.542 3.82997C320.687 3.28688 321.984 2.00197 323.284 1.89296C325.545 1.70293 326.384 2.73992 328.076 3.82997C329.291 3.24154 330.524 2.00679 331.923 1.89296C334.11 1.71547 334.963 2.78816 336.629 3.81068C337.849 3.23382 339.039 2.01451 340.457 1.892C342.675 1.701 343.487 2.77272 345.163 3.81068C347.006 2.82481 347.987 1.61707 350.34 1.90454C351.599 2.05888 352.653 3.31485 353.767 3.80972C355.528 2.77176 356.582 1.62576 358.875 1.90454C360.118 2.05599 361.214 3.29363 362.302 3.80972C363.498 3.22804 364.661 2.01258 366.061 1.89297C368.314 1.70004 369.127 2.77079 370.835 3.81261C372.02 3.26276 373.233 2.00872 374.596 1.89297C376.853 1.70197 377.686 2.76887 379.388 3.82998C381.114 2.82192 382.16 1.68943 384.382 1.89779C385.765 2.02802 386.776 3.2126 387.92 3.82708C389.738 2.81999 390.696 1.65277 393.022 1.89586C394.275 2.02705 395.39 3.27531 396.455 3.82708C397.639 3.30039 398.868 2.03477 400.203 1.89586C402.416 1.66627 403.322 2.77176 404.989 3.79622C404.989 3.80972 404.989 3.82226 404.989 3.83577C404.989 4.03352 404.994 4.23031 405 4.42613C403.484 5.28756 402.15 6.6207 400.215 6.42005C398.73 6.26571 397.681 5.09849 396.458 4.43578C394.976 5.25765 393.654 6.57343 391.774 6.42874C390.535 6.33324 389.156 5.26344 388.154 4.59591C388.072 4.54092 388.097 4.39912 388.025 4.40105C386.409 5.20363 385.157 6.62938 383.146 6.42005C381.635 6.26282 380.614 5.12646 379.388 4.43288C378.021 5.16022 376.684 6.43645 375.017 6.43645C373.281 6.43645 372.208 5.2345 370.854 4.43288C369.258 5.26344 368.079 6.58597 366.079 6.41812C364.504 6.28597 363.529 5.06279 362.216 4.40105C362.143 4.39912 362.176 4.54381 362.089 4.59591C360.904 5.31071 359.382 6.40462 357.951 6.43549C356.226 6.47311 355.088 5.23257 353.769 4.41552C352.167 5.23161 350.918 6.65736 348.92 6.40558C347.392 6.21265 346.406 5.12164 345.164 4.42034C343.935 5.11681 342.662 6.28307 341.178 6.41812C339.322 6.58694 338.071 5.36087 336.701 4.41359C335.15 5.17566 333.938 6.54931 332.032 6.42777C330.66 6.33999 329.393 5.32228 328.307 4.59494C328.224 4.53899 328.249 4.39815 328.178 4.40105C326.742 5.1091 325.546 6.3969 323.812 6.43549C322.042 6.47504 320.919 5.248 319.542 4.43191C317.961 5.3001 316.686 6.62745 314.679 6.40172C313.25 6.24063 312.167 5.11295 311.007 4.43191C309.479 5.28563 308.164 6.59465 306.22 6.42777C304.739 6.30043 303.605 5.03482 302.369 4.40008C302.296 4.39815 302.329 4.54285 302.242 4.59494C301.161 5.24704 299.589 6.36699 298.313 6.43259C296.443 6.52905 295.337 5.29238 293.92 4.41937C291.91 5.56923 290.356 7.19466 287.81 6.0313C287.373 5.83161 285.486 4.39526 285.318 4.41841C283.773 5.30395 282.508 6.62359 280.522 6.41812C279.034 6.26378 278.027 5.04639 276.784 4.41841C275.285 5.26247 273.983 6.58693 272.082 6.4268C270.668 6.30815 269.401 5.18048 268.32 4.41165C267.017 5.04543 265.703 6.33805 264.175 6.43066C262.297 6.54545 261.147 5.28755 259.696 4.42998C258.121 5.2943 256.838 6.65542 254.831 6.40268C253.361 6.21844 252.366 5.10813 251.161 4.42998C249.572 5.29816 248.312 6.62745 246.298 6.40075C244.83 6.2358 243.831 5.09945 242.626 4.43095C241.106 5.24607 239.853 6.55317 237.944 6.4268C236.324 6.31876 235.341 5.09076 234.002 4.41455C232.089 5.6792 230.284 7.24096 227.829 5.9628C227.463 5.7718 225.634 4.38754 225.467 4.41455C223.297 5.82004 221.656 7.30849 218.956 5.79399C218.701 5.65122 217.731 4.88433 217.227 4.56214C217.278 4.24573 217.317 3.9274 217.344 3.60521C218.442 2.99844 219.49 2.001 220.764 1.89103C222.96 1.70196 223.822 2.7486 225.467 3.81454C227.322 2.83831 228.29 1.61707 230.648 1.90357L230.647 1.90453ZM403.588 4.16182C403.65 3.92548 402.032 3.00328 401.713 2.9097C400.154 2.45053 399.03 3.34476 397.865 4.16278C399.812 5.94255 401.593 5.77181 403.588 4.16085L403.588 4.16182ZM393.146 5.29045C393.854 5.05026 394.346 4.45121 395.052 4.21005C395.086 4.075 395.03 4.05185 394.951 3.96792C394.81 3.81937 393.885 3.23286 393.669 3.13061C391.899 2.2904 390.696 3.18173 389.329 4.16374C390.49 5.06762 391.536 5.83741 393.146 5.29142L393.146 5.29045ZM383.865 5.46602C384.882 5.37148 385.628 4.59012 386.517 4.21005C386.543 3.884 386.137 3.84252 385.931 3.69396C383.864 2.20358 382.692 2.68012 380.796 4.16471C381.696 4.8853 382.592 5.58563 383.865 5.46698L383.865 5.46602ZM374.11 5.34158C375.738 5.78242 376.645 4.95668 377.917 4.21873L377.982 4.02001C377.429 3.79428 377.004 3.30424 376.462 3.06501C374.727 2.30101 373.635 3.23575 372.258 4.06728C372.257 4.3615 373.761 5.24608 374.111 5.34061L374.11 5.34158ZM365.071 5.13321C366.87 6.00718 367.908 5.03675 369.383 4.21969L369.448 4.02098C368.82 3.78271 368.343 3.20585 367.721 2.96758C366.133 2.35985 364.971 3.32547 363.723 4.06824C363.723 4.27757 364.828 5.01456 365.072 5.13321L365.071 5.13321ZM358.054 5.46988C359.169 5.42164 359.91 4.648 360.85 4.21776L360.913 4.02001C360.282 3.80393 359.862 3.25215 359.249 3.0052C357.53 2.31259 356.407 3.31196 355.088 4.16278C356.02 4.78208 356.823 5.52293 358.054 5.46988ZM349.414 5.47277C350.512 5.45733 351.429 4.72131 352.275 4.16278C350.53 2.15245 348.45 2.59523 346.553 4.16374C347.449 4.75989 348.22 5.49013 349.414 5.47277ZM339.747 5.25958C341.369 5.87406 342.51 5.00781 343.741 4.16181C343.78 4.01615 342.583 3.20778 342.377 3.11131C340.58 2.26628 339.406 3.19234 338.018 4.16278C338.018 4.26021 339.522 5.17373 339.747 5.25958ZM332.345 5.47277C333.441 5.45733 334.325 4.67404 335.206 4.16181C335.241 4.02966 334.049 3.21742 333.84 3.11324C332.142 2.26049 330.787 3.19138 329.484 4.16278C330.366 4.77147 331.156 5.48917 332.345 5.4718L332.345 5.47277ZM322.058 4.96633C324.012 6.0448 325.052 5.21328 326.671 4.16181C326.725 3.95248 325.105 3.00231 324.797 2.9097C323.141 2.41194 322.296 3.40071 320.948 4.02001C320.832 4.17628 321.874 4.86408 322.058 4.96536L322.058 4.96633ZM313.836 5.15926C315.61 5.98885 316.741 5.0271 318.138 4.16278C318.138 4.01326 316.963 3.23479 316.752 3.13157C314.939 2.23348 313.918 3.23768 312.412 4.02097C312.378 4.15602 312.434 4.17918 312.513 4.2631C312.659 4.41744 313.616 5.057 313.835 5.15926L313.836 5.15926ZM305.301 5.15926C307.067 6.00911 308.197 5.00395 309.603 4.16278C309.603 3.98528 308.249 3.13832 308.007 3.03703C306.264 2.30583 305.296 3.28784 303.878 4.02097C303.843 4.15892 303.901 4.18014 303.981 4.26406C304.186 4.47918 305.022 5.02517 305.301 5.16022L305.301 5.15926ZM297.193 5.34254C298.843 5.83451 299.786 4.89687 301.068 4.16278C301.099 4.02773 300.983 4.00072 300.893 3.93801C299.614 3.04475 298.614 2.37432 296.985 3.08141C296.412 3.33029 295.951 3.82033 295.343 4.02001C295.151 4.2795 296.895 5.25283 297.192 5.34157L297.193 5.34254ZM292.424 4.15409C292.46 3.99879 291.282 3.22032 291.064 3.11324C289.264 2.23831 288.129 3.25601 286.706 4.16278C288.61 5.87406 290.52 5.83933 292.424 4.15313L292.424 4.15409ZM283.894 4.16181C283.956 3.92547 282.338 3.00327 282.019 2.9097C280.402 2.43316 279.403 3.38431 278.171 4.16278C280.124 5.92518 281.911 5.77374 283.894 4.16085L283.894 4.16181ZM275.359 4.16181C273.631 2.19779 271.502 2.5605 269.637 4.16374C271.595 5.93387 273.363 5.77759 275.359 4.16181ZM263.856 5.47277C265.08 5.49206 265.841 4.72131 266.823 4.21004C266.858 4.07499 266.801 4.05184 266.722 3.96792C266.512 3.74605 265.261 3.0052 264.949 2.91066C263.402 2.43895 262.244 3.34475 261.101 4.16374C261.976 4.75603 262.69 5.45444 263.856 5.47277ZM255.321 5.4718C256.533 5.48531 257.285 4.68368 258.289 4.20908C258.323 4.07403 258.267 4.05088 258.188 3.96695C258.013 3.78174 257.165 3.25601 256.903 3.13157C255.13 2.29039 253.912 3.11034 252.566 4.16181C253.407 4.75796 254.192 5.4583 255.321 5.47084L255.321 5.4718ZM245.521 5.19398C247.228 5.96377 248.417 5.00877 249.756 4.16277C249.758 4.01422 248.581 3.23478 248.371 3.13157C246.566 2.23734 245.53 3.23671 244.03 4.02097C243.997 4.20715 244.165 4.29782 244.293 4.40297C244.525 4.59397 245.249 5.07244 245.521 5.19398ZM236.842 5.13321C238.604 5.98885 239.725 5.07629 241.155 4.21969L241.219 4.02097C240.579 3.77499 240.137 3.20681 239.49 2.96951C237.865 2.37432 236.773 3.31003 235.495 4.06824C235.495 4.27757 236.599 5.01456 236.844 5.13321L236.842 5.13321ZM222.681 3.11324C220.862 2.27689 219.752 3.20584 218.323 4.16374C220.265 5.87791 222.089 5.81907 224.046 4.16277C224.091 3.99203 222.907 3.21838 222.681 3.1142L222.681 3.11324ZM226.857 4.21004C227.653 4.59301 228.296 5.31842 229.226 5.43997C230.649 5.62614 231.49 4.82549 232.621 4.21969L232.685 4.02097C232.077 3.7856 231.624 3.24925 231.021 3.00616C229.339 2.32801 228.107 3.2917 226.858 4.21101L226.857 4.21004Z"></path>
<path fill="#1B5D31" d="M229.816 4.68754C228.696 4.72902 229.414 3.04861 230.162 3.65537C230.48 3.91389 230.373 4.66632 229.816 4.68754Z"></path>
<path fill="#1B5D31" d="M323.472 3.65923C323.856 3.32932 324.463 3.74026 324.365 4.23705C324.168 5.248 322.661 4.35378 323.472 3.65923Z"></path>
<path fill="#1B5D31" d="M289.988 3.72483C290.576 4.3258 289.699 5.01552 289.226 4.57372C288.741 4.1213 289.444 3.17015 289.988 3.72483Z"></path>
<path fill="#1B5D31" d="M358.39 3.65634C358.709 3.91486 358.601 4.66729 358.045 4.68851C356.925 4.72999 357.643 3.04958 358.39 3.65634Z"></path>
<path fill="#1B5D31" d="M384.209 4.33738C384.062 4.77919 383.219 4.85057 383.099 4.23706C382.921 3.32064 384.529 3.3708 384.209 4.33738Z"></path>
<path fill="#1B5D31" d="M349.835 3.72483C350.423 4.3258 349.546 5.01553 349.073 4.57372C348.588 4.1213 349.291 3.17016 349.835 3.72483Z"></path>
<path fill="#1B5D31" d="M220.845 4.57371C220.36 4.12129 221.064 3.17015 221.607 3.72482C222.195 4.3258 221.319 5.01552 220.845 4.57371Z"></path>
<path fill="#1B5D31" d="M255.983 4.33641C255.844 4.77147 254.991 4.85732 254.87 4.23705C254.688 3.30231 256.282 3.39974 255.983 4.33641Z"></path>
<path fill="#1B5D31" d="M375.453 3.66309C375.882 3.95924 375.692 4.6451 375.114 4.69044C374.086 4.77051 374.618 3.08623 375.453 3.66309Z"></path>
<path fill="#1B5D31" d="M238.695 3.65923C239.569 4.40876 237.802 5.27694 237.779 4.15988C237.77 3.67563 238.334 3.34958 238.695 3.65923Z"></path>
<path fill="#1B5D31" d="M340.542 3.65923C341.346 3.04765 341.958 4.77051 340.887 4.69044C340.309 4.64703 340.184 3.93223 340.542 3.65923Z"></path>
<path fill="#1B5D31" d="M272.161 3.65923C272.984 3.03221 273.604 4.84575 272.414 4.675C271.913 4.60265 271.834 3.90714 272.161 3.65923Z"></path>
<path fill="#1B5D31" d="M400.364 3.68432C401 3.18173 401.65 4.1869 401.168 4.57372C400.596 5.03193 399.756 4.16567 400.364 3.68432Z"></path>
<path fill="#1B5D31" d="M247.448 4.23609C247.343 4.76664 246.51 4.85828 246.341 4.33545C246.028 3.36115 247.633 3.30134 247.448 4.23609Z"></path>
<path fill="#1B5D31" d="M298.645 3.75473C299.283 4.47822 297.648 5.22871 297.626 4.15988C297.614 3.56566 298.318 3.38431 298.645 3.75473Z"></path>
<path fill="#1B5D31" d="M264.515 4.33738C264.361 4.80041 263.498 4.78594 263.408 4.23898C263.25 3.27626 264.831 3.38623 264.515 4.33738Z"></path>
<path fill="#1B5D31" d="M314.721 3.89268C314.9 3.35826 315.974 3.50778 315.83 4.23609C315.685 4.97115 314.446 4.71455 314.721 3.89268Z"></path>
<path fill="#1B5D31" d="M281.453 3.72483C281.993 4.27178 281.221 5.03771 280.694 4.57179C280.156 4.09621 280.93 3.19523 281.453 3.72483Z"></path>
<path fill="#1B5D31" d="M306.186 3.89268C306.37 3.33897 307.442 3.49524 307.295 4.23609C307.15 4.97019 305.912 4.71552 306.186 3.89268Z"></path>
<path fill="#1B5D31" d="M332.008 3.65923C332.815 3.04668 333.419 4.77436 332.351 4.6914C331.756 4.6451 331.627 3.94863 332.008 3.65923Z"></path>
<path fill="#1B5D31" d="M366.92 3.66309C367.831 4.37018 366.031 5.29527 366.008 4.15989C365.999 3.68046 366.525 3.3573 366.92 3.66309Z"></path>
<path fill="#1B5D31" d="M391.694 3.84927C391.994 3.26469 392.976 3.60618 392.742 4.33545C392.519 5.03096 391.311 4.59591 391.694 3.84927Z"></path>
<path fill="#1B5D31" d="M214.264 0.0646803C213.65 -0.307797 212.699 1.00547 212.547 1.51491C212.173 2.7757 212.591 3.48737 213.616 4.21057C213.326 4.65728 212.979 4.70848 212.703 5.24864C212.262 6.11263 212.351 6.89086 212.953 7.66398C213.295 8.10429 214.369 8.66493 214.423 7.9187C214.464 7.34014 213.419 6.73471 214.122 5.46368C214.407 4.94656 215.717 4.30529 215.741 4.20673C215.805 3.95329 214.928 3.63585 214.676 3.44257C213.942 2.88322 213.774 2.45698 213.917 1.55203C213.98 1.15395 214.608 0.272039 214.264 0.0634005L214.264 0.0646803Z"></path>
<path fill="#1B5D31" d="M208.023 4.22208C208.023 4.22208 212.551 5.64415 212.555 4.24C212.559 2.57474 208.023 4.22208 208.023 4.22208Z"></path>
<path fill="#1B5D31" d="M217.969 3.53601C217.635 3.21345 216.481 3.20321 216.399 3.94945C216.237 5.42399 218.067 5.23968 218.144 4.33856C218.162 4.13376 218.116 3.67681 217.969 3.53473L217.969 3.53601Z"></path>
<path fill="#1B5D31" d="M174.353 1.90453C173.088 2.05791 172.042 3.30038 170.928 3.81261C169.74 3.24636 168.533 2.00968 167.168 1.89296C164.917 1.70003 164.093 2.76211 162.393 3.81261C161.211 3.27144 159.983 2.00679 158.633 1.89296C156.375 1.70196 155.543 2.76886 153.841 3.82997C152.101 2.82288 151.077 1.68846 148.846 1.89778C147.464 2.02801 146.452 3.2126 145.308 3.82708C143.485 2.83253 142.539 1.6518 140.206 1.89585C138.985 2.02415 137.807 3.27144 136.753 3.81068C135.508 3.24925 134.356 2.01644 132.925 1.892C130.756 1.70485 129.861 2.79491 128.218 3.81068L125.654 2.26435C123.295 1.10967 121.463 2.54217 119.682 3.81068C118.419 3.25697 117.306 2.0174 115.854 1.89296C113.647 1.70293 112.8 2.74378 111.148 3.81068C109.313 2.84217 108.195 1.57656 105.865 1.90261C104.781 2.05406 103.552 3.30424 102.613 3.81068C101.28 3.24926 100.203 2.01644 98.6809 1.89296C96.465 1.71257 95.6813 2.82867 93.993 3.82997C92.8523 3.27144 91.5648 2.00293 90.2503 1.89296C87.9917 1.70389 87.1622 2.76693 85.4584 3.82997C84.3135 3.28688 83.0156 2.00197 81.7156 1.89296C79.4549 1.70293 78.616 2.73992 76.9237 3.82997C75.709 3.24154 74.4756 2.00679 73.0768 1.89296C70.89 1.71547 70.0366 2.78816 68.3713 3.81068C67.1514 3.23382 65.9607 2.01451 64.5431 1.892C62.3252 1.701 61.5133 2.77272 59.8366 3.81068C57.9943 2.82481 57.0128 1.61707 54.6595 1.90454C53.4012 2.05888 52.3468 3.31485 51.2332 3.80972C49.4721 2.77176 48.4178 1.62576 46.1248 1.90454C44.8821 2.05599 43.7861 3.29363 42.6985 3.80972C41.5015 3.22804 40.3389 2.01258 38.939 1.89297C36.6857 1.70004 35.8728 2.77079 34.1648 3.81261C32.9804 3.26276 31.7668 2.00872 30.4043 1.89297C28.1468 1.70197 27.3142 2.76887 25.6124 3.82998C23.8857 2.82192 22.8397 1.68943 20.6175 1.89779C19.2353 2.02802 18.2237 3.2126 17.0798 3.82708C15.2615 2.81999 14.3039 1.65277 11.9777 1.89586C10.7246 2.02705 9.60986 3.27531 8.54511 3.82708C7.36066 3.30039 6.13249 2.03477 4.79713 1.89586C2.58435 1.66627 1.6778 2.77176 0.0114488 3.79622C0.0114488 3.80972 0.0114488 3.82226 0.0114488 3.83577C0.0114488 4.03352 0.00624472 4.23031 -1.68598e-07 4.42613C1.51647 5.28756 2.84976 6.6207 4.78464 6.42005C6.26988 6.26571 7.31902 5.09849 8.54198 4.43578C10.0241 5.25765 11.3459 6.57343 13.2257 6.42874C14.4653 6.33324 15.8444 5.26344 16.8456 4.59591C16.9278 4.54092 16.9029 4.39912 16.9747 4.40105C18.5911 5.20363 19.8432 6.62938 21.854 6.42005C23.3653 6.26282 24.3863 5.12646 25.6124 4.43288C26.979 5.16022 28.3165 6.43645 29.9828 6.43645C31.7189 6.43645 32.792 5.2345 34.1461 4.43288C35.7416 5.26344 36.9209 6.58597 38.9213 6.41812C40.4961 6.28597 41.4713 5.06279 42.7838 4.40105C42.8567 4.39912 42.8244 4.54381 42.9108 4.59591C44.0963 5.31071 45.618 6.40462 47.0491 6.43549C48.7737 6.47311 49.9124 5.23257 51.2311 4.41552C52.8329 5.23161 54.0819 6.65736 56.0803 6.40558C57.6082 6.21265 58.5938 5.12164 59.8355 4.42034C61.0647 5.11681 62.3377 6.28307 63.8219 6.41812C65.6776 6.58694 66.9287 5.36087 68.2994 4.41359C69.8503 5.17566 71.0618 6.54931 72.9675 6.42777C74.3403 6.33999 75.607 5.32228 76.6926 4.59494C76.7759 4.53899 76.7509 4.39815 76.8216 4.40105C78.258 5.1091 79.4539 6.3969 81.1879 6.43549C82.9583 6.47504 84.0814 5.248 85.4584 4.43191C87.0394 5.3001 88.3144 6.62745 90.3211 6.40172C91.7501 6.24063 92.8325 5.11295 93.993 4.43191C95.521 5.28563 96.8355 6.59465 98.7798 6.42777C100.261 6.30043 101.395 5.03482 102.631 4.40008C102.704 4.39815 102.671 4.54285 102.758 4.59494C103.839 5.24704 105.411 6.36699 106.687 6.43259C108.557 6.52905 109.663 5.29238 111.08 4.41937C113.09 5.56923 114.644 7.19466 117.19 6.0313C117.627 5.83161 119.514 4.39526 119.682 4.41841C121.227 5.30395 122.492 6.62359 124.478 6.41812C125.966 6.26378 126.973 5.04639 128.216 4.41841C129.715 5.26247 131.017 6.58693 132.918 6.4268C134.332 6.30815 135.599 5.18048 136.68 4.41165C137.983 5.04543 139.297 6.33805 140.825 6.43066C142.703 6.54545 143.853 5.28755 145.304 4.42998C146.879 5.2943 148.162 6.65542 150.169 6.40268C151.639 6.21844 152.634 5.10813 153.839 4.42998C155.428 5.29816 156.688 6.62745 158.702 6.40075C160.17 6.2358 161.169 5.09945 162.374 4.43095C163.894 5.24607 165.147 6.55317 167.056 6.4268C168.676 6.31876 169.659 5.09076 170.998 4.41455C172.911 5.6792 174.716 7.24096 177.171 5.9628C177.537 5.7718 179.366 4.38754 179.533 4.41455C181.703 5.82004 183.344 7.30849 186.044 5.79399C186.299 5.65122 187.269 4.88433 187.773 4.56214C187.722 4.24573 187.683 3.9274 187.656 3.60521C186.558 2.99844 185.51 2.001 184.236 1.89103C182.04 1.70196 181.178 2.7486 179.533 3.81454C177.678 2.83831 176.71 1.61707 174.352 1.90357L174.353 1.90453ZM1.41239 4.16182C1.34994 3.92548 2.96841 3.00328 3.2869 2.9097C4.84604 2.45053 5.97012 3.34476 7.1348 4.16278C5.18847 5.94255 3.40659 5.77181 1.41239 4.16085L1.41239 4.16182ZM11.8539 5.29045C11.1461 5.05026 10.6538 4.45121 9.94813 4.21005C9.91378 4.075 9.96998 4.05185 10.0491 3.96792C10.1896 3.81937 11.1149 3.23286 11.3314 3.13061C13.1008 2.2904 14.3039 3.18173 15.6705 4.16374C14.51 5.06762 13.464 5.83741 11.8539 5.29142L11.8539 5.29045ZM21.1348 5.46602C20.118 5.37148 19.3717 4.59012 18.4828 4.21005C18.4568 3.884 18.8627 3.84252 19.0688 3.69396C21.1359 2.20358 22.3078 2.68012 24.2042 4.16471C23.3039 4.8853 22.4077 5.58563 21.1348 5.46698L21.1348 5.46602ZM30.8904 5.34158C29.2615 5.78242 28.355 4.95668 27.0831 4.21873L27.0175 4.02001C27.5712 3.79428 27.9959 3.30424 28.5382 3.06501C30.2732 2.30101 31.365 3.23575 32.742 4.06728C32.7431 4.3615 31.2391 5.24608 30.8894 5.34061L30.8904 5.34158ZM39.9289 5.13321C38.1303 6.00718 37.0916 5.03675 35.6168 4.21969L35.5522 4.02098C36.1798 3.78271 36.6565 3.20585 37.2789 2.96758C38.8672 2.35985 40.0288 3.32547 41.2767 4.06824C41.2767 4.27757 40.1724 5.01456 39.9278 5.13321L39.9289 5.13321ZM46.946 5.46988C45.8313 5.42164 45.0903 4.648 44.1504 4.21776L44.0869 4.02001C44.7177 3.80393 45.1381 3.25215 45.7512 3.0052C47.4696 2.31259 48.5926 3.31196 49.9124 4.16278C48.9798 4.78208 48.1773 5.52293 46.946 5.46988ZM55.5859 5.47277C54.4878 5.45733 53.5708 4.72131 52.7247 4.16278C54.4701 2.15245 56.5497 2.59523 58.4471 4.16374C57.5509 4.75989 56.7797 5.49013 55.5859 5.47277ZM65.253 5.25958C63.6314 5.87406 62.4896 5.00781 61.2594 4.16181C61.2198 4.01615 62.4167 3.20778 62.6228 3.11131C64.4203 2.26628 65.5944 3.19234 66.9818 4.16278C66.9818 4.26021 65.4778 5.17373 65.253 5.25958ZM72.6553 5.47277C71.5593 5.45733 70.6746 4.67404 69.7941 4.16181C69.7587 4.02966 70.9514 3.21742 71.1596 3.11324C72.8582 2.26049 74.2134 3.19138 75.5165 4.16278C74.6339 4.77147 73.8439 5.48917 72.6553 5.4718L72.6553 5.47277ZM82.9417 4.96633C80.988 6.0448 79.9483 5.21328 78.3288 4.16181C78.2746 3.95248 79.8952 3.00231 80.2033 2.9097C81.8592 2.41194 82.7044 3.40071 84.0522 4.02001C84.1677 4.17628 83.1259 4.86408 82.9417 4.96536L82.9417 4.96633ZM91.1641 5.15926C89.3895 5.98885 88.2592 5.0271 86.8624 4.16278C86.8624 4.01326 88.0375 3.23479 88.2477 3.13157C90.0609 2.23348 91.0819 3.23768 92.588 4.02097C92.6223 4.15602 92.5661 4.17918 92.487 4.2631C92.3413 4.41744 91.3837 5.057 91.1651 5.15926L91.1641 5.15926ZM99.6988 5.15926C97.9325 6.00911 96.8033 5.00395 95.3971 4.16278C95.3971 3.98528 96.7512 3.13832 96.9927 3.03703C98.7361 2.30583 99.704 3.28784 101.122 4.02097C101.157 4.15892 101.099 4.18014 101.019 4.26406C100.814 4.47918 99.9778 5.02517 99.6988 5.16022L99.6988 5.15926ZM107.807 5.34254C106.157 5.83451 105.214 4.89687 103.932 4.16278C103.901 4.02773 104.017 4.00072 104.107 3.93801C105.386 3.04475 106.386 2.37432 108.015 3.08141C108.588 3.33029 109.049 3.82033 109.657 4.02001C109.849 4.2795 108.105 5.25283 107.808 5.34157L107.807 5.34254ZM112.576 4.15409C112.54 3.99879 113.718 3.22032 113.936 3.11324C115.736 2.23831 116.871 3.25601 118.294 4.16278C116.39 5.87406 114.48 5.83933 112.576 4.15313L112.576 4.15409ZM121.106 4.16181C121.044 3.92547 122.662 3.00327 122.981 2.9097C124.598 2.43316 125.597 3.38431 126.829 4.16278C124.876 5.92518 123.089 5.77374 121.106 4.16085L121.106 4.16181ZM129.641 4.16181C131.369 2.19779 133.498 2.5605 135.363 4.16374C133.405 5.93387 131.637 5.77759 129.641 4.16181ZM141.144 5.47277C139.92 5.49206 139.159 4.72131 138.177 4.21004C138.142 4.07499 138.199 4.05184 138.278 3.96792C138.488 3.74605 139.739 3.0052 140.051 2.91066C141.598 2.43895 142.756 3.34475 143.899 4.16374C143.024 4.75603 142.31 5.45444 141.144 5.47277ZM149.679 5.4718C148.467 5.48531 147.715 4.68368 146.711 4.20908C146.677 4.07403 146.733 4.05088 146.812 3.96695C146.987 3.78174 147.835 3.25601 148.097 3.13157C149.87 2.29039 151.088 3.11034 152.434 4.16181C151.593 4.75796 150.808 5.4583 149.679 5.47084L149.679 5.4718ZM159.479 5.19398C157.772 5.96377 156.583 5.00877 155.244 4.16277C155.242 4.01422 156.419 3.23478 156.629 3.13157C158.434 2.23734 159.47 3.23671 160.97 4.02097C161.003 4.20715 160.835 4.29782 160.707 4.40297C160.475 4.59397 159.751 5.07244 159.479 5.19398ZM168.158 5.13321C166.396 5.98885 165.275 5.07629 163.845 4.21969L163.781 4.02097C164.421 3.77499 164.863 3.20681 165.51 2.96951C167.135 2.37432 168.227 3.31003 169.505 4.06824C169.505 4.27757 168.401 5.01456 168.156 5.13321L168.158 5.13321ZM182.319 3.11324C184.138 2.27689 185.248 3.20584 186.677 4.16374C184.735 5.87791 182.911 5.81907 180.954 4.16277C180.909 3.99203 182.093 3.21838 182.319 3.1142L182.319 3.11324ZM178.143 4.21004C177.347 4.59301 176.704 5.31842 175.774 5.43997C174.351 5.62614 173.51 4.82549 172.379 4.21969L172.315 4.02097C172.923 3.7856 173.376 3.24925 173.979 3.00616C175.661 2.32801 176.893 3.2917 178.142 4.21101L178.143 4.21004Z"></path>
<path fill="#1B5D31" d="M175.184 4.68754C176.304 4.72902 175.586 3.04861 174.838 3.65537C174.52 3.91389 174.627 4.66632 175.184 4.68754Z"></path>
<path fill="#1B5D31" d="M81.5282 3.65923C81.1442 3.32932 80.5374 3.74026 80.6352 4.23705C80.8319 5.248 82.339 4.35378 81.5282 3.65923Z"></path>
<path fill="#1B5D31" d="M115.012 3.72483C114.424 4.3258 115.301 5.01552 115.774 4.57372C116.259 4.1213 115.556 3.17015 115.012 3.72483Z"></path>
<path fill="#1B5D31" d="M46.6099 3.65634C46.2914 3.91486 46.3986 4.66729 46.9554 4.68851C48.0753 4.72999 47.3572 3.04958 46.6099 3.65634Z"></path>
<path fill="#1B5D31" d="M20.7914 4.33738C20.9381 4.77919 21.7812 4.85057 21.9009 4.23706C22.0788 3.32064 20.4708 3.3708 20.7914 4.33738Z"></path>
<path fill="#1B5D31" d="M55.1654 3.72483C54.5773 4.3258 55.4537 5.01553 55.9273 4.57372C56.4123 4.1213 55.7087 3.17016 55.1654 3.72483Z"></path>
<path fill="#1B5D31" d="M184.155 4.57371C184.64 4.12129 183.936 3.17015 183.393 3.72482C182.805 4.3258 183.681 5.01552 184.155 4.57371Z"></path>
<path fill="#1B5D31" d="M149.017 4.33641C149.156 4.77147 150.009 4.85732 150.13 4.23705C150.312 3.30231 148.718 3.39974 149.017 4.33641Z"></path>
<path fill="#1B5D31" d="M29.5467 3.66309C29.1179 3.95924 29.3084 4.6451 29.886 4.69044C30.9143 4.77051 30.3825 3.08623 29.5467 3.66309Z"></path>
<path fill="#1B5D31" d="M166.305 3.65923C165.431 4.40876 167.198 5.27694 167.221 4.15988C167.23 3.67563 166.666 3.34958 166.305 3.65923Z"></path>
<path fill="#1B5D31" d="M64.4578 3.65923C63.6543 3.04765 63.0423 4.77051 64.1133 4.69044C64.6909 4.64703 64.8158 3.93223 64.4578 3.65923Z"></path>
<path fill="#1B5D31" d="M132.839 3.65923C132.016 3.03221 131.396 4.84575 132.586 4.675C133.087 4.60265 133.166 3.90714 132.839 3.65923Z"></path>
<path fill="#1B5D31" d="M4.6358 3.68432C3.99986 3.18173 3.35039 4.1869 3.83229 4.57372C4.4037 5.03193 5.24364 4.16567 4.6358 3.68432Z"></path>
<path fill="#1B5D31" d="M157.552 4.23609C157.657 4.76664 158.49 4.85828 158.659 4.33545C158.972 3.36115 157.367 3.30134 157.552 4.23609Z"></path>
<path fill="#1B5D31" d="M106.355 3.75473C105.717 4.47822 107.352 5.22871 107.374 4.15988C107.386 3.56566 106.682 3.38431 106.355 3.75473Z"></path>
<path fill="#1B5D31" d="M140.485 4.33738C140.639 4.80041 141.502 4.78594 141.592 4.23898C141.75 3.27626 140.169 3.38623 140.485 4.33738Z"></path>
<path fill="#1B5D31" d="M90.2794 3.89268C90.1004 3.35826 89.0263 3.50778 89.1699 4.23609C89.3146 4.97115 90.5542 4.71455 90.2794 3.89268Z"></path>
<path fill="#1B5D31" d="M123.547 3.72483C123.007 4.27178 123.779 5.03771 124.306 4.57179C124.844 4.09621 124.07 3.19523 123.547 3.72483Z"></path>
<path fill="#1B5D31" d="M98.8141 3.89268C98.6299 3.33897 97.5578 3.49524 97.7046 4.23609C97.8503 4.97019 99.0879 4.71552 98.8141 3.89268Z"></path>
<path fill="#1B5D31" d="M72.9925 3.65923C72.1848 3.04668 71.5811 4.77436 72.649 4.6914C73.2444 4.6451 73.3734 3.94863 72.9925 3.65923Z"></path>
<path fill="#1B5D31" d="M38.0804 3.66309C37.1686 4.37018 38.9692 5.29527 38.9921 4.15989C39.0015 3.68046 38.4748 3.3573 38.0804 3.66309Z"></path>
<path fill="#1B5D31" d="M13.3058 3.84927C13.006 3.26469 12.0235 3.60618 12.2577 4.33545C12.4815 5.03096 13.6888 4.59591 13.3058 3.84927Z"></path>
<path fill="#1B5D31" d="M190.736 0.0646803C191.35 -0.307797 192.301 1.00547 192.453 1.51491C192.827 2.7757 192.409 3.48737 191.384 4.21057C191.674 4.65728 192.021 4.70848 192.297 5.24864C192.738 6.11263 192.649 6.89086 192.047 7.66398C191.705 8.10429 190.631 8.66493 190.577 7.9187C190.536 7.34014 191.581 6.73471 190.878 5.46368C190.593 4.94656 189.283 4.30529 189.259 4.20673C189.195 3.95329 190.072 3.63585 190.324 3.44257C191.058 2.88322 191.226 2.45698 191.083 1.55203C191.02 1.15395 190.392 0.272039 190.736 0.0634005L190.736 0.0646803Z"></path>
<path fill="#1B5D31" d="M196.977 4.22208C196.977 4.22208 192.449 5.64415 192.445 4.24C192.441 2.57474 196.977 4.22208 196.977 4.22208Z"></path>
<path fill="#1B5D31" d="M187.031 3.53601C187.365 3.21345 188.519 3.20321 188.601 3.94945C188.763 5.42399 186.933 5.23968 186.856 4.33856C186.838 4.13376 186.884 3.67681 187.031 3.53473L187.031 3.53601Z"></path>
<circle fill="#F58220" transform="rotate(-90 202.498 3.68146)" r="3.68182" cy="3.68146" cx="202.498"></circle>
</svg>
